<svg xmlns="http://www.w3.org/2000/svg" viewBox="0 0 400 300" fill="none">
  <rect width="400" height="300" fill="#0a1f44"/>
  <rect width="400" height="300" fill="url(#grad)" opacity="0.3"/>
  <defs>
    <linearGradient id="grad" x1="0" y1="0" x2="1" y2="1">
      <stop offset="0%" stop-color="#c9a227" stop-opacity="0.15"/>
      <stop offset="100%" stop-color="#0a1f44" stop-opacity="0"/>
    </linearGradient>
  </defs>
  <g transform="translate(200,120)">
    <path d="M0 -40 C 20 -40, 35 -25, 35 0 C 35 25, 20 40, 0 40 C -20 40, -35 25, -35 0 C -35 -25, -20 -40, 0 -40 Z" fill="none" stroke="#c9a227" stroke-width="3"/>
    <path d="M0 -25 C 12 -25, 22 -15, 22 0 C 22 15, 12 25, 0 25 C -12 25, -22 15, -22 0 C -22 -15, -12 -25, 0 -25 Z" fill="#c9a227" opacity="0.3"/>
    <text x="0" y="80" text-anchor="middle" font-family="Georgia, serif" font-size="28" font-weight="bold" fill="#c9a227" letter-spacing="2">SANATTO</text>
    <text x="0" y="105" text-anchor="middle" font-family="Arial, sans-serif" font-size="11" fill="#f8f7f4" opacity="0.7" letter-spacing="4">FACILITIES</text>
  </g>
</svg>
